<svg id="Capa_1" enable-background="new 0 0 493.705 493.705" height="512" viewBox="0 0 493.705 493.705" width="512" xmlns="http://www.w3.org/2000/svg"><g><path d="m436.243 243.386h-378.783s5.373-242.609 12-242.609h354.783c6.627 0 12 5.373 12 12z" fill="#c3ddff"/><path d="m281.504 110.072c0 33.641 18.219 60.911 51.86 60.911s60.913-27.272 60.913-60.913-27.272-60.913-60.913-60.913-51.86 27.274-51.86 60.915z" fill="#ffe177"/><path d="m345.86 169.692c-4.04.85-8.22 1.29-12.5 1.29-33.64 0-60.91-27.27-60.91-60.91s27.27-60.91 60.91-60.91c4.28 0 8.46.44 12.5 1.29-27.64 5.76-48.41 30.26-48.41 59.62s20.77 53.86 48.41 59.62z" fill="#ffd15b"/><path d="m397.16 296.202h-300.62l93.398-141.785 53.452-112.565c1.54-2.67 5.39-2.67 6.93 0l16.705 51.13 32.312 33.775z" fill="#7a6d79"/><path d="m217.383 130.194-95.843 166.008h-25l97.68-169.19s29.2-26.134 30.74-23.464z" fill="#685e68"/><path d="m94.46.772c-6.63 0-12 5.38-12 12v230.61h-25v-230.61c0-6.62 5.37-12 12-12z" fill="#a4ccff"/><path d="m299.34 126.752-.01.01c-3.58 3.03-7.87 5.32-14.36 5.32-19.17 0-19.17-20-38.34-20-15.54 0-18.48 13.14-29.25 18.11-2.52 1.17-5.46 1.89-9.1 1.89-6.31 0-10.54-2.16-14.06-5.07l49.17-85.16c1.54-2.67 5.39-2.67 6.93 0l9.03 15.65z" fill="#edf4ff"/><path d="m153.156 210.972v-18.075c0-6.627-5.373-12-12-12h-119.218v312.033h459.766c6.627 0 12-5.373 12-12v-245.958c0-6.627-5.373-12-12-12h-316.548c-6.628 0-12-5.373-12-12z" fill="#ffe177"/><path d="m37 492.932h-25c-6.63 0-12-5.38-12-12v-288.04c0-6.62 5.37-12 12-12h25c-6.63 0-12 5.38-12 12v288.04c0 6.62 5.37 12 12 12z" fill="#ffd15b"/><path d="m259.35 57.502-41.97 72.69c-2.52 1.17-5.46 1.89-9.1 1.89-6.31 0-10.54-2.16-14.06-5.07l49.17-85.16c1.54-2.67 5.39-2.67 6.93 0z" fill="#dbeaff"/></g></svg>