<svg id="Layer_1" enable-background="new 0 0 510 510" height="512" viewBox="0 0 510 510" width="512" xmlns="http://www.w3.org/2000/svg"><g><path id="XMLID_539_" d="m255 510h-255v-510h255l10 255z" fill="#595454"/><path id="XMLID_96_" d="m255 450h-195v-390h195l10 199.842z" fill="#ffec29"/><path id="XMLID_1977_" d="m510 510h-255v-510h255z" fill="#383d40"/><path id="XMLID_1975_" d="m255 60h195v390h-195z" fill="#ffcb00"/><path id="XMLID_285_" d="m255 338.787 10-83.787-10-165h-165v263.787z" fill="#f4f1f1"/><path id="XMLID_2487_" d="m90 353.787v66.213h165l10-37.5-10-43.713-75-75z" fill="#bee75e"/><path id="XMLID_1619_" d="m180 210c-24.813 0-45-20.186-45-45 0-24.812 20.187-45 45-45s45 20.188 45 45c0 24.814-20.187 45-45 45z" fill="#ffcb00"/><path id="XMLID_2382_" d="m336.213 420-33.88-50.079-47.333-31.134v81.213z" fill="#00da80"/><path id="XMLID_1974_" d="m255 338.787 165-75v-173.787h-165z" fill="#eceae7"/><path id="XMLID_1152_" d="m375 218.786-120 120.001 81.213 81.213h83.787v-156.213z" fill="#00b9a0"/></g></svg>